<mxfile host="app.diagrams.net" agent="Mozilla/5.0 (Windows NT 10.0; Win64; x64) AppleWebKit/537.36 (KHTML, like Gecko) Chrome/129.0.0.0 Safari/537.36" version="24.7.17">
  <diagram name="Page-1" id="jLthMqUIqezzf1474sBT">
    <mxGraphModel dx="4387" dy="3685" grid="1" gridSize="10" guides="1" tooltips="1" connect="1" arrows="1" fold="1" page="1" pageScale="1" pageWidth="827" pageHeight="1169" math="0" shadow="0">
      <root>
        <mxCell id="0" />
        <mxCell id="1" parent="0" />
        <mxCell id="0MIJxyE_HFCa453wtPNX-1" value="Start" style="ellipse;whiteSpace=wrap;html=1;aspect=fixed;" vertex="1" parent="1">
          <mxGeometry x="200" y="80" width="40" height="40" as="geometry" />
        </mxCell>
        <mxCell id="0MIJxyE_HFCa453wtPNX-2" value="" style="endArrow=classic;html=1;rounded=0;exitX=0.5;exitY=1;exitDx=0;exitDy=0;entryX=0.5;entryY=0;entryDx=0;entryDy=0;" edge="1" parent="1" source="0MIJxyE_HFCa453wtPNX-1" target="0MIJxyE_HFCa453wtPNX-3">
          <mxGeometry width="50" height="50" relative="1" as="geometry">
            <mxPoint x="450" y="260" as="sourcePoint" />
            <mxPoint x="220" y="140" as="targetPoint" />
          </mxGeometry>
        </mxCell>
        <mxCell id="0MIJxyE_HFCa453wtPNX-4" style="edgeStyle=orthogonalEdgeStyle;rounded=0;orthogonalLoop=1;jettySize=auto;html=1;exitX=0;exitY=0.5;exitDx=0;exitDy=0;entryX=0.5;entryY=0;entryDx=0;entryDy=0;" edge="1" parent="1" source="0MIJxyE_HFCa453wtPNX-3" target="0MIJxyE_HFCa453wtPNX-151">
          <mxGeometry relative="1" as="geometry">
            <mxPoint x="10" y="2680" as="targetPoint" />
            <Array as="points">
              <mxPoint x="-130" y="160" />
              <mxPoint x="-130" y="2720" />
            </Array>
          </mxGeometry>
        </mxCell>
        <mxCell id="0MIJxyE_HFCa453wtPNX-6" value="No" style="edgeLabel;html=1;align=center;verticalAlign=middle;resizable=0;points=[];" vertex="1" connectable="0" parent="0MIJxyE_HFCa453wtPNX-4">
          <mxGeometry x="0.4611" relative="1" as="geometry">
            <mxPoint as="offset" />
          </mxGeometry>
        </mxCell>
        <mxCell id="0MIJxyE_HFCa453wtPNX-5" style="edgeStyle=orthogonalEdgeStyle;rounded=0;orthogonalLoop=1;jettySize=auto;html=1;exitX=1;exitY=0.5;exitDx=0;exitDy=0;entryX=0.5;entryY=0;entryDx=0;entryDy=0;" edge="1" parent="1" source="0MIJxyE_HFCa453wtPNX-3" target="0MIJxyE_HFCa453wtPNX-8">
          <mxGeometry relative="1" as="geometry">
            <mxPoint x="359.9999999999998" y="200" as="targetPoint" />
          </mxGeometry>
        </mxCell>
        <mxCell id="0MIJxyE_HFCa453wtPNX-7" value="Yes" style="edgeLabel;html=1;align=center;verticalAlign=middle;resizable=0;points=[];" vertex="1" connectable="0" parent="0MIJxyE_HFCa453wtPNX-5">
          <mxGeometry x="0.33" y="2" relative="1" as="geometry">
            <mxPoint as="offset" />
          </mxGeometry>
        </mxCell>
        <mxCell id="0MIJxyE_HFCa453wtPNX-3" value="Check for autoApprove" style="rhombus;whiteSpace=wrap;html=1;fillColor=#FFF2CC;" vertex="1" parent="1">
          <mxGeometry x="120" y="140" width="200" height="40" as="geometry" />
        </mxCell>
        <mxCell id="0MIJxyE_HFCa453wtPNX-9" style="edgeStyle=orthogonalEdgeStyle;rounded=0;orthogonalLoop=1;jettySize=auto;html=1;exitX=0;exitY=0.5;exitDx=0;exitDy=0;entryX=0.5;entryY=0;entryDx=0;entryDy=0;" edge="1" parent="1" source="0MIJxyE_HFCa453wtPNX-8" target="0MIJxyE_HFCa453wtPNX-148">
          <mxGeometry relative="1" as="geometry">
            <mxPoint x="200" y="2820" as="targetPoint" />
          </mxGeometry>
        </mxCell>
        <mxCell id="0MIJxyE_HFCa453wtPNX-11" value="Yes" style="edgeLabel;html=1;align=center;verticalAlign=middle;resizable=0;points=[];" vertex="1" connectable="0" parent="0MIJxyE_HFCa453wtPNX-9">
          <mxGeometry x="0.3223" relative="1" as="geometry">
            <mxPoint as="offset" />
          </mxGeometry>
        </mxCell>
        <mxCell id="0MIJxyE_HFCa453wtPNX-10" style="edgeStyle=orthogonalEdgeStyle;rounded=0;orthogonalLoop=1;jettySize=auto;html=1;exitX=1;exitY=0.5;exitDx=0;exitDy=0;entryX=0.5;entryY=0;entryDx=0;entryDy=0;" edge="1" parent="1" source="0MIJxyE_HFCa453wtPNX-8" target="0MIJxyE_HFCa453wtPNX-13">
          <mxGeometry relative="1" as="geometry">
            <mxPoint x="499.9999999999998" y="260" as="targetPoint" />
          </mxGeometry>
        </mxCell>
        <mxCell id="0MIJxyE_HFCa453wtPNX-12" value="No" style="edgeLabel;html=1;align=center;verticalAlign=middle;resizable=0;points=[];" vertex="1" connectable="0" parent="0MIJxyE_HFCa453wtPNX-10">
          <mxGeometry x="0.3639" y="3" relative="1" as="geometry">
            <mxPoint as="offset" />
          </mxGeometry>
        </mxCell>
        <mxCell id="0MIJxyE_HFCa453wtPNX-8" value="Check for keepMeSignedIn" style="rhombus;whiteSpace=wrap;html=1;fillColor=#FFF2CC;" vertex="1" parent="1">
          <mxGeometry x="260" y="200" width="200" height="40" as="geometry" />
        </mxCell>
        <mxCell id="0MIJxyE_HFCa453wtPNX-14" style="edgeStyle=orthogonalEdgeStyle;rounded=0;orthogonalLoop=1;jettySize=auto;html=1;exitX=0.5;exitY=1;exitDx=0;exitDy=0;entryX=0.505;entryY=-0.037;entryDx=0;entryDy=0;entryPerimeter=0;" edge="1" parent="1" source="0MIJxyE_HFCa453wtPNX-13" target="0MIJxyE_HFCa453wtPNX-15">
          <mxGeometry relative="1" as="geometry">
            <mxPoint x="520" y="340" as="targetPoint" />
          </mxGeometry>
        </mxCell>
        <mxCell id="0MIJxyE_HFCa453wtPNX-13" value="ProcessRequest&lt;div&gt;serviceType =&amp;nbsp;SERVICE_CHECK_DEVICE_MOBILE&lt;/div&gt;" style="rounded=0;whiteSpace=wrap;html=1;" vertex="1" parent="1">
          <mxGeometry x="400" y="260" width="240" height="60" as="geometry" />
        </mxCell>
        <mxCell id="0MIJxyE_HFCa453wtPNX-16" style="edgeStyle=orthogonalEdgeStyle;rounded=0;orthogonalLoop=1;jettySize=auto;html=1;exitX=0.5;exitY=1;exitDx=0;exitDy=0;" edge="1" parent="1" source="0MIJxyE_HFCa453wtPNX-15">
          <mxGeometry relative="1" as="geometry">
            <mxPoint x="520" y="400" as="targetPoint" />
          </mxGeometry>
        </mxCell>
        <mxCell id="0MIJxyE_HFCa453wtPNX-15" value="call this.validateUser" style="rounded=0;whiteSpace=wrap;html=1;" vertex="1" parent="1">
          <mxGeometry x="420" y="340" width="200" height="40" as="geometry" />
        </mxCell>
        <mxCell id="0MIJxyE_HFCa453wtPNX-18" style="edgeStyle=orthogonalEdgeStyle;rounded=0;orthogonalLoop=1;jettySize=auto;html=1;exitX=0.5;exitY=1;exitDx=0;exitDy=0;" edge="1" parent="1" source="0MIJxyE_HFCa453wtPNX-17">
          <mxGeometry relative="1" as="geometry">
            <mxPoint x="520" y="460" as="targetPoint" />
          </mxGeometry>
        </mxCell>
        <mxCell id="0MIJxyE_HFCa453wtPNX-17" value="call this.validateUser" style="rounded=0;whiteSpace=wrap;html=1;" vertex="1" parent="1">
          <mxGeometry x="420" y="400" width="200" height="40" as="geometry" />
        </mxCell>
        <mxCell id="0MIJxyE_HFCa453wtPNX-20" style="edgeStyle=orthogonalEdgeStyle;rounded=0;orthogonalLoop=1;jettySize=auto;html=1;exitX=0;exitY=0.5;exitDx=0;exitDy=0;entryX=0.5;entryY=0;entryDx=0;entryDy=0;" edge="1" parent="1" source="0MIJxyE_HFCa453wtPNX-19" target="0MIJxyE_HFCa453wtPNX-32">
          <mxGeometry relative="1" as="geometry">
            <mxPoint x="320" y="540" as="targetPoint" />
            <Array as="points">
              <mxPoint x="320" y="480" />
            </Array>
          </mxGeometry>
        </mxCell>
        <mxCell id="0MIJxyE_HFCa453wtPNX-31" value="else" style="edgeLabel;html=1;align=center;verticalAlign=middle;resizable=0;points=[];" vertex="1" connectable="0" parent="0MIJxyE_HFCa453wtPNX-20">
          <mxGeometry x="0.475" y="-2" relative="1" as="geometry">
            <mxPoint as="offset" />
          </mxGeometry>
        </mxCell>
        <mxCell id="0MIJxyE_HFCa453wtPNX-21" style="edgeStyle=orthogonalEdgeStyle;rounded=0;orthogonalLoop=1;jettySize=auto;html=1;exitX=0.5;exitY=1;exitDx=0;exitDy=0;entryX=0.5;entryY=0;entryDx=0;entryDy=0;" edge="1" parent="1" source="0MIJxyE_HFCa453wtPNX-19" target="0MIJxyE_HFCa453wtPNX-28">
          <mxGeometry relative="1" as="geometry">
            <mxPoint x="519.7931034482758" y="540" as="targetPoint" />
          </mxGeometry>
        </mxCell>
        <mxCell id="0MIJxyE_HFCa453wtPNX-23" value="PlainText" style="edgeLabel;html=1;align=center;verticalAlign=middle;resizable=0;points=[];" vertex="1" connectable="0" parent="0MIJxyE_HFCa453wtPNX-21">
          <mxGeometry x="-0.4538" relative="1" as="geometry">
            <mxPoint as="offset" />
          </mxGeometry>
        </mxCell>
        <mxCell id="0MIJxyE_HFCa453wtPNX-22" style="edgeStyle=orthogonalEdgeStyle;rounded=0;orthogonalLoop=1;jettySize=auto;html=1;exitX=1;exitY=0.5;exitDx=0;exitDy=0;entryX=0.5;entryY=0;entryDx=0;entryDy=0;" edge="1" parent="1" source="0MIJxyE_HFCa453wtPNX-19" target="0MIJxyE_HFCa453wtPNX-25">
          <mxGeometry relative="1" as="geometry">
            <mxPoint x="719.9999999999998" y="540" as="targetPoint" />
          </mxGeometry>
        </mxCell>
        <mxCell id="0MIJxyE_HFCa453wtPNX-24" value="#DeviceId" style="edgeLabel;html=1;align=center;verticalAlign=middle;resizable=0;points=[];" vertex="1" connectable="0" parent="0MIJxyE_HFCa453wtPNX-22">
          <mxGeometry x="0.4581" y="-1" relative="1" as="geometry">
            <mxPoint as="offset" />
          </mxGeometry>
        </mxCell>
        <mxCell id="0MIJxyE_HFCa453wtPNX-19" value="check authenticationType" style="rhombus;whiteSpace=wrap;html=1;fillColor=#FFF2CC;" vertex="1" parent="1">
          <mxGeometry x="420" y="460" width="200" height="40" as="geometry" />
        </mxCell>
        <mxCell id="0MIJxyE_HFCa453wtPNX-27" style="edgeStyle=orthogonalEdgeStyle;rounded=0;orthogonalLoop=1;jettySize=auto;html=1;exitX=0.5;exitY=1;exitDx=0;exitDy=0;entryX=0.5;entryY=0;entryDx=0;entryDy=0;" edge="1" parent="1" source="0MIJxyE_HFCa453wtPNX-25" target="0MIJxyE_HFCa453wtPNX-26">
          <mxGeometry relative="1" as="geometry" />
        </mxCell>
        <mxCell id="0MIJxyE_HFCa453wtPNX-25" value="call this.computeHashPwd" style="rounded=0;whiteSpace=wrap;html=1;" vertex="1" parent="1">
          <mxGeometry x="640" y="540" width="160" height="40" as="geometry" />
        </mxCell>
        <mxCell id="0MIJxyE_HFCa453wtPNX-37" style="edgeStyle=orthogonalEdgeStyle;rounded=0;orthogonalLoop=1;jettySize=auto;html=1;exitX=0.5;exitY=1;exitDx=0;exitDy=0;entryX=0.5;entryY=0;entryDx=0;entryDy=0;" edge="1" parent="1" source="0MIJxyE_HFCa453wtPNX-26" target="0MIJxyE_HFCa453wtPNX-34">
          <mxGeometry relative="1" as="geometry" />
        </mxCell>
        <mxCell id="0MIJxyE_HFCa453wtPNX-26" value="call this.otpMatched" style="rounded=0;whiteSpace=wrap;html=1;" vertex="1" parent="1">
          <mxGeometry x="640" y="600" width="160" height="40" as="geometry" />
        </mxCell>
        <mxCell id="0MIJxyE_HFCa453wtPNX-29" style="edgeStyle=orthogonalEdgeStyle;rounded=0;orthogonalLoop=1;jettySize=auto;html=1;exitX=0.5;exitY=1;exitDx=0;exitDy=0;entryX=0.5;entryY=0;entryDx=0;entryDy=0;" edge="1" parent="1" source="0MIJxyE_HFCa453wtPNX-28" target="0MIJxyE_HFCa453wtPNX-30">
          <mxGeometry relative="1" as="geometry">
            <mxPoint x="520" y="600" as="targetPoint" />
          </mxGeometry>
        </mxCell>
        <mxCell id="0MIJxyE_HFCa453wtPNX-28" value="call HashUtils.hashSHA256" style="rounded=0;whiteSpace=wrap;html=1;" vertex="1" parent="1">
          <mxGeometry x="440" y="540" width="160" height="40" as="geometry" />
        </mxCell>
        <mxCell id="0MIJxyE_HFCa453wtPNX-36" style="edgeStyle=orthogonalEdgeStyle;rounded=0;orthogonalLoop=1;jettySize=auto;html=1;exitX=0.5;exitY=1;exitDx=0;exitDy=0;entryX=0.5;entryY=0;entryDx=0;entryDy=0;" edge="1" parent="1" source="0MIJxyE_HFCa453wtPNX-30" target="0MIJxyE_HFCa453wtPNX-34">
          <mxGeometry relative="1" as="geometry" />
        </mxCell>
        <mxCell id="0MIJxyE_HFCa453wtPNX-30" value="compare(lHashedPin, lPin)" style="rounded=0;whiteSpace=wrap;html=1;" vertex="1" parent="1">
          <mxGeometry x="440" y="600" width="160" height="40" as="geometry" />
        </mxCell>
        <mxCell id="0MIJxyE_HFCa453wtPNX-33" style="edgeStyle=orthogonalEdgeStyle;rounded=0;orthogonalLoop=1;jettySize=auto;html=1;exitX=0.5;exitY=1;exitDx=0;exitDy=0;entryX=0.5;entryY=0;entryDx=0;entryDy=0;" edge="1" parent="1" source="0MIJxyE_HFCa453wtPNX-32" target="0MIJxyE_HFCa453wtPNX-34">
          <mxGeometry relative="1" as="geometry">
            <mxPoint x="320" y="690" as="targetPoint" />
            <Array as="points">
              <mxPoint x="320" y="660" />
              <mxPoint x="520" y="660" />
            </Array>
          </mxGeometry>
        </mxCell>
        <mxCell id="0MIJxyE_HFCa453wtPNX-32" value="Auhtentication Type not clear" style="rounded=0;whiteSpace=wrap;html=1;" vertex="1" parent="1">
          <mxGeometry x="240" y="540" width="160" height="40" as="geometry" />
        </mxCell>
        <mxCell id="0MIJxyE_HFCa453wtPNX-38" style="edgeStyle=orthogonalEdgeStyle;rounded=0;orthogonalLoop=1;jettySize=auto;html=1;exitX=0;exitY=0.5;exitDx=0;exitDy=0;entryX=0.5;entryY=0;entryDx=0;entryDy=0;" edge="1" parent="1" source="0MIJxyE_HFCa453wtPNX-34" target="0MIJxyE_HFCa453wtPNX-42">
          <mxGeometry relative="1" as="geometry">
            <mxPoint x="360" y="760" as="targetPoint" />
          </mxGeometry>
        </mxCell>
        <mxCell id="0MIJxyE_HFCa453wtPNX-41" value="No" style="edgeLabel;html=1;align=center;verticalAlign=middle;resizable=0;points=[];" vertex="1" connectable="0" parent="0MIJxyE_HFCa453wtPNX-38">
          <mxGeometry x="0.3837" y="4" relative="1" as="geometry">
            <mxPoint as="offset" />
          </mxGeometry>
        </mxCell>
        <mxCell id="0MIJxyE_HFCa453wtPNX-39" style="edgeStyle=orthogonalEdgeStyle;rounded=0;orthogonalLoop=1;jettySize=auto;html=1;exitX=1;exitY=0.5;exitDx=0;exitDy=0;entryX=0.5;entryY=0;entryDx=0;entryDy=0;" edge="1" parent="1" source="0MIJxyE_HFCa453wtPNX-34" target="0MIJxyE_HFCa453wtPNX-44">
          <mxGeometry relative="1" as="geometry">
            <mxPoint x="680" y="760" as="targetPoint" />
          </mxGeometry>
        </mxCell>
        <mxCell id="0MIJxyE_HFCa453wtPNX-40" value="Yes" style="edgeLabel;html=1;align=center;verticalAlign=middle;resizable=0;points=[];" vertex="1" connectable="0" parent="0MIJxyE_HFCa453wtPNX-39">
          <mxGeometry x="0.4157" y="-2" relative="1" as="geometry">
            <mxPoint as="offset" />
          </mxGeometry>
        </mxCell>
        <mxCell id="0MIJxyE_HFCa453wtPNX-34" value="check lHashedvalueMatch" style="rhombus;whiteSpace=wrap;html=1;fillColor=#FFF2CC;" vertex="1" parent="1">
          <mxGeometry x="395" y="680" width="250" height="60" as="geometry" />
        </mxCell>
        <mxCell id="0MIJxyE_HFCa453wtPNX-127" style="edgeStyle=orthogonalEdgeStyle;rounded=0;orthogonalLoop=1;jettySize=auto;html=1;exitX=0.5;exitY=1;exitDx=0;exitDy=0;entryX=0.5;entryY=0;entryDx=0;entryDy=0;" edge="1" parent="1" source="0MIJxyE_HFCa453wtPNX-42" target="0MIJxyE_HFCa453wtPNX-129">
          <mxGeometry relative="1" as="geometry">
            <mxPoint x="370" y="2290" as="targetPoint" />
            <Array as="points">
              <mxPoint x="360" y="2280" />
              <mxPoint x="520" y="2280" />
            </Array>
          </mxGeometry>
        </mxCell>
        <mxCell id="0MIJxyE_HFCa453wtPNX-42" value="Authentication Failed" style="rounded=0;whiteSpace=wrap;html=1;" vertex="1" parent="1">
          <mxGeometry x="280" y="760" width="160" height="40" as="geometry" />
        </mxCell>
        <mxCell id="0MIJxyE_HFCa453wtPNX-46" style="edgeStyle=orthogonalEdgeStyle;rounded=0;orthogonalLoop=1;jettySize=auto;html=1;exitX=0;exitY=0.5;exitDx=0;exitDy=0;entryX=0.5;entryY=0;entryDx=0;entryDy=0;" edge="1" parent="1" source="0MIJxyE_HFCa453wtPNX-44" target="0MIJxyE_HFCa453wtPNX-54">
          <mxGeometry relative="1" as="geometry">
            <mxPoint x="480" y="880" as="targetPoint" />
            <Array as="points">
              <mxPoint x="480" y="800" />
              <mxPoint x="480" y="1000" />
              <mxPoint x="680" y="1000" />
            </Array>
          </mxGeometry>
        </mxCell>
        <mxCell id="0MIJxyE_HFCa453wtPNX-81" value="No" style="edgeLabel;html=1;align=center;verticalAlign=middle;resizable=0;points=[];" vertex="1" connectable="0" parent="0MIJxyE_HFCa453wtPNX-46">
          <mxGeometry x="-0.5081" y="2" relative="1" as="geometry">
            <mxPoint as="offset" />
          </mxGeometry>
        </mxCell>
        <mxCell id="0MIJxyE_HFCa453wtPNX-47" style="edgeStyle=orthogonalEdgeStyle;rounded=0;orthogonalLoop=1;jettySize=auto;html=1;exitX=1;exitY=0.5;exitDx=0;exitDy=0;entryX=0.5;entryY=0;entryDx=0;entryDy=0;" edge="1" parent="1" source="0MIJxyE_HFCa453wtPNX-44" target="0MIJxyE_HFCa453wtPNX-51">
          <mxGeometry relative="1" as="geometry">
            <mxPoint x="880" y="880" as="targetPoint" />
          </mxGeometry>
        </mxCell>
        <mxCell id="0MIJxyE_HFCa453wtPNX-48" value="Yes" style="edgeLabel;html=1;align=center;verticalAlign=middle;resizable=0;points=[];" vertex="1" connectable="0" parent="0MIJxyE_HFCa453wtPNX-47">
          <mxGeometry x="0.2101" y="2" relative="1" as="geometry">
            <mxPoint as="offset" />
          </mxGeometry>
        </mxCell>
        <mxCell id="0MIJxyE_HFCa453wtPNX-44" value="If loginRequest.keepMeSignedIn == &quot;Y&quot; &amp;amp;&amp;amp;&lt;div&gt;&amp;nbsp;PropertiesUtils.keepMeSignedIn == &quot;Y&quot;&amp;nbsp;&lt;/div&gt;&lt;div&gt;&amp;amp;&amp;amp; header.deviceId == &quot;WEB&quot;&lt;/div&gt;" style="rhombus;whiteSpace=wrap;html=1;fillColor=#FFF2CC;" vertex="1" parent="1">
          <mxGeometry x="510" y="760" width="340" height="80" as="geometry" />
        </mxCell>
        <mxCell id="0MIJxyE_HFCa453wtPNX-52" style="edgeStyle=orthogonalEdgeStyle;rounded=0;orthogonalLoop=1;jettySize=auto;html=1;exitX=0.5;exitY=1;exitDx=0;exitDy=0;entryX=0.5;entryY=0;entryDx=0;entryDy=0;" edge="1" parent="1" source="0MIJxyE_HFCa453wtPNX-51" target="0MIJxyE_HFCa453wtPNX-53">
          <mxGeometry relative="1" as="geometry">
            <mxPoint x="880.1304347826087" y="940" as="targetPoint" />
          </mxGeometry>
        </mxCell>
        <mxCell id="0MIJxyE_HFCa453wtPNX-51" value="header.selector == generateRandom" style="rounded=0;whiteSpace=wrap;html=1;" vertex="1" parent="1">
          <mxGeometry x="770" y="880" width="220" height="40" as="geometry" />
        </mxCell>
        <mxCell id="0MIJxyE_HFCa453wtPNX-55" style="edgeStyle=orthogonalEdgeStyle;rounded=0;orthogonalLoop=1;jettySize=auto;html=1;exitX=0.5;exitY=1;exitDx=0;exitDy=0;" edge="1" parent="1" source="0MIJxyE_HFCa453wtPNX-53">
          <mxGeometry relative="1" as="geometry">
            <mxPoint x="680" y="1020" as="targetPoint" />
          </mxGeometry>
        </mxCell>
        <mxCell id="0MIJxyE_HFCa453wtPNX-53" value="header.keepUserSignedIn == true" style="rounded=0;whiteSpace=wrap;html=1;" vertex="1" parent="1">
          <mxGeometry x="770" y="940" width="220" height="40" as="geometry" />
        </mxCell>
        <mxCell id="0MIJxyE_HFCa453wtPNX-56" style="edgeStyle=orthogonalEdgeStyle;rounded=0;orthogonalLoop=1;jettySize=auto;html=1;exitX=0;exitY=0.5;exitDx=0;exitDy=0;entryX=0.5;entryY=0;entryDx=0;entryDy=0;" edge="1" parent="1" source="0MIJxyE_HFCa453wtPNX-54" target="0MIJxyE_HFCa453wtPNX-65">
          <mxGeometry relative="1" as="geometry">
            <mxPoint x="490" y="1120" as="targetPoint" />
            <Array as="points">
              <mxPoint x="480" y="1050" />
              <mxPoint x="480" y="1280" />
              <mxPoint x="680" y="1280" />
            </Array>
          </mxGeometry>
        </mxCell>
        <mxCell id="0MIJxyE_HFCa453wtPNX-80" value="No" style="edgeLabel;html=1;align=center;verticalAlign=middle;resizable=0;points=[];" vertex="1" connectable="0" parent="0MIJxyE_HFCa453wtPNX-56">
          <mxGeometry x="-0.5914" y="-1" relative="1" as="geometry">
            <mxPoint as="offset" />
          </mxGeometry>
        </mxCell>
        <mxCell id="0MIJxyE_HFCa453wtPNX-57" style="edgeStyle=orthogonalEdgeStyle;rounded=0;orthogonalLoop=1;jettySize=auto;html=1;exitX=1;exitY=0.5;exitDx=0;exitDy=0;entryX=0.5;entryY=0;entryDx=0;entryDy=0;" edge="1" parent="1" source="0MIJxyE_HFCa453wtPNX-54" target="0MIJxyE_HFCa453wtPNX-60">
          <mxGeometry relative="1" as="geometry">
            <mxPoint x="880" y="1120" as="targetPoint" />
          </mxGeometry>
        </mxCell>
        <mxCell id="0MIJxyE_HFCa453wtPNX-58" value="Yes" style="edgeLabel;html=1;align=center;verticalAlign=middle;resizable=0;points=[];" vertex="1" connectable="0" parent="0MIJxyE_HFCa453wtPNX-57">
          <mxGeometry x="0.2355" relative="1" as="geometry">
            <mxPoint as="offset" />
          </mxGeometry>
        </mxCell>
        <mxCell id="0MIJxyE_HFCa453wtPNX-54" value="If header.interfaceId == &quot;appzillonAuthenticationRequest&quot;" style="rhombus;whiteSpace=wrap;html=1;fillColor=#FFF2CC;" vertex="1" parent="1">
          <mxGeometry x="510" y="1020" width="340" height="60" as="geometry" />
        </mxCell>
        <mxCell id="0MIJxyE_HFCa453wtPNX-63" style="edgeStyle=orthogonalEdgeStyle;rounded=0;orthogonalLoop=1;jettySize=auto;html=1;exitX=0.5;exitY=1;exitDx=0;exitDy=0;entryX=0.5;entryY=0;entryDx=0;entryDy=0;" edge="1" parent="1" source="0MIJxyE_HFCa453wtPNX-60" target="0MIJxyE_HFCa453wtPNX-62">
          <mxGeometry relative="1" as="geometry" />
        </mxCell>
        <mxCell id="0MIJxyE_HFCa453wtPNX-60" value="set header.serviceType = ValidateSession" style="rounded=0;whiteSpace=wrap;html=1;" vertex="1" parent="1">
          <mxGeometry x="770" y="1120" width="220" height="40" as="geometry" />
        </mxCell>
        <mxCell id="0MIJxyE_HFCa453wtPNX-64" style="edgeStyle=orthogonalEdgeStyle;rounded=0;orthogonalLoop=1;jettySize=auto;html=1;exitX=0.5;exitY=1;exitDx=0;exitDy=0;entryX=0.5;entryY=0;entryDx=0;entryDy=0;" edge="1" parent="1" source="0MIJxyE_HFCa453wtPNX-62" target="0MIJxyE_HFCa453wtPNX-65">
          <mxGeometry relative="1" as="geometry">
            <mxPoint x="680" y="1299.9999999999998" as="targetPoint" />
            <Array as="points">
              <mxPoint x="880" y="1280" />
              <mxPoint x="680" y="1280" />
            </Array>
          </mxGeometry>
        </mxCell>
        <mxCell id="0MIJxyE_HFCa453wtPNX-62" value="SessionHandler.handleRequest&lt;div&gt;with serviceType =&amp;nbsp;SERVICE_TYPE_VALIDATE_SESSION&lt;/div&gt;" style="rounded=0;whiteSpace=wrap;html=1;" vertex="1" parent="1">
          <mxGeometry x="720" y="1190" width="320" height="60" as="geometry" />
        </mxCell>
        <mxCell id="0MIJxyE_HFCa453wtPNX-66" style="edgeStyle=orthogonalEdgeStyle;rounded=0;orthogonalLoop=1;jettySize=auto;html=1;exitX=0.5;exitY=1;exitDx=0;exitDy=0;entryX=0.5;entryY=0;entryDx=0;entryDy=0;" edge="1" parent="1" source="0MIJxyE_HFCa453wtPNX-65" target="0MIJxyE_HFCa453wtPNX-68">
          <mxGeometry relative="1" as="geometry">
            <mxPoint x="680" y="1359.9999999999998" as="targetPoint" />
          </mxGeometry>
        </mxCell>
        <mxCell id="0MIJxyE_HFCa453wtPNX-65" value="call checkPasswordExpiry()" style="rounded=0;whiteSpace=wrap;html=1;" vertex="1" parent="1">
          <mxGeometry x="570" y="1300" width="220" height="40" as="geometry" />
        </mxCell>
        <mxCell id="0MIJxyE_HFCa453wtPNX-70" style="edgeStyle=orthogonalEdgeStyle;rounded=0;orthogonalLoop=1;jettySize=auto;html=1;exitX=0.5;exitY=1;exitDx=0;exitDy=0;entryX=0.5;entryY=0;entryDx=0;entryDy=0;" edge="1" parent="1" source="0MIJxyE_HFCa453wtPNX-68" target="0MIJxyE_HFCa453wtPNX-71">
          <mxGeometry relative="1" as="geometry">
            <mxPoint x="680.1304347826087" y="1420" as="targetPoint" />
          </mxGeometry>
        </mxCell>
        <mxCell id="0MIJxyE_HFCa453wtPNX-68" value="call this.authenticationSuccess" style="rounded=0;whiteSpace=wrap;html=1;" vertex="1" parent="1">
          <mxGeometry x="570" y="1360" width="220" height="40" as="geometry" />
        </mxCell>
        <mxCell id="0MIJxyE_HFCa453wtPNX-72" style="edgeStyle=orthogonalEdgeStyle;rounded=0;orthogonalLoop=1;jettySize=auto;html=1;exitX=0;exitY=0.5;exitDx=0;exitDy=0;entryX=0.5;entryY=0;entryDx=0;entryDy=0;" edge="1" parent="1" source="0MIJxyE_HFCa453wtPNX-71" target="0MIJxyE_HFCa453wtPNX-77">
          <mxGeometry relative="1" as="geometry">
            <mxPoint x="480" y="1520" as="targetPoint" />
            <Array as="points">
              <mxPoint x="480" y="1450" />
              <mxPoint x="480" y="1580" />
              <mxPoint x="680" y="1580" />
            </Array>
          </mxGeometry>
        </mxCell>
        <mxCell id="0MIJxyE_HFCa453wtPNX-79" value="No" style="edgeLabel;html=1;align=center;verticalAlign=middle;resizable=0;points=[];" vertex="1" connectable="0" parent="0MIJxyE_HFCa453wtPNX-72">
          <mxGeometry x="-0.5613" relative="1" as="geometry">
            <mxPoint as="offset" />
          </mxGeometry>
        </mxCell>
        <mxCell id="0MIJxyE_HFCa453wtPNX-73" style="edgeStyle=orthogonalEdgeStyle;rounded=0;orthogonalLoop=1;jettySize=auto;html=1;exitX=1;exitY=0.5;exitDx=0;exitDy=0;entryX=0.5;entryY=0;entryDx=0;entryDy=0;" edge="1" parent="1" source="0MIJxyE_HFCa453wtPNX-71" target="0MIJxyE_HFCa453wtPNX-75">
          <mxGeometry relative="1" as="geometry">
            <mxPoint x="880" y="1520" as="targetPoint" />
          </mxGeometry>
        </mxCell>
        <mxCell id="0MIJxyE_HFCa453wtPNX-74" value="Yes" style="edgeLabel;html=1;align=center;verticalAlign=middle;resizable=0;points=[];" vertex="1" connectable="0" parent="0MIJxyE_HFCa453wtPNX-73">
          <mxGeometry x="0.2702" y="4" relative="1" as="geometry">
            <mxPoint as="offset" />
          </mxGeometry>
        </mxCell>
        <mxCell id="0MIJxyE_HFCa453wtPNX-71" value="check if loginRequest has pwd1" style="rhombus;whiteSpace=wrap;html=1;fillColor=#FFF2CC;" vertex="1" parent="1">
          <mxGeometry x="510" y="1420" width="340" height="60" as="geometry" />
        </mxCell>
        <mxCell id="0MIJxyE_HFCa453wtPNX-76" style="edgeStyle=orthogonalEdgeStyle;rounded=0;orthogonalLoop=1;jettySize=auto;html=1;exitX=0.5;exitY=1;exitDx=0;exitDy=0;entryX=0.5;entryY=0;entryDx=0;entryDy=0;" edge="1" parent="1" source="0MIJxyE_HFCa453wtPNX-75" target="0MIJxyE_HFCa453wtPNX-77">
          <mxGeometry relative="1" as="geometry">
            <mxPoint x="680" y="1600" as="targetPoint" />
          </mxGeometry>
        </mxCell>
        <mxCell id="0MIJxyE_HFCa453wtPNX-75" value="workFlowUtils.storePwdForOpenBanking()" style="rounded=0;whiteSpace=wrap;html=1;" vertex="1" parent="1">
          <mxGeometry x="720" y="1520" width="320" height="40" as="geometry" />
        </mxCell>
        <mxCell id="0MIJxyE_HFCa453wtPNX-78" style="edgeStyle=orthogonalEdgeStyle;rounded=0;orthogonalLoop=1;jettySize=auto;html=1;exitX=0.5;exitY=1;exitDx=0;exitDy=0;entryX=0.5;entryY=0;entryDx=0;entryDy=0;" edge="1" parent="1" source="0MIJxyE_HFCa453wtPNX-77" target="0MIJxyE_HFCa453wtPNX-82">
          <mxGeometry relative="1" as="geometry">
            <mxPoint x="680.1304347826087" y="1670" as="targetPoint" />
            <Array as="points" />
          </mxGeometry>
        </mxCell>
        <mxCell id="0MIJxyE_HFCa453wtPNX-77" value="workFlowUtils.storePwdForOpenBanking()" style="rounded=0;whiteSpace=wrap;html=1;" vertex="1" parent="1">
          <mxGeometry x="520" y="1600" width="320" height="40" as="geometry" />
        </mxCell>
        <mxCell id="0MIJxyE_HFCa453wtPNX-84" style="edgeStyle=orthogonalEdgeStyle;rounded=0;orthogonalLoop=1;jettySize=auto;html=1;exitX=0.5;exitY=1;exitDx=0;exitDy=0;entryX=0.5;entryY=0;entryDx=0;entryDy=0;" edge="1" parent="1" source="0MIJxyE_HFCa453wtPNX-82" target="0MIJxyE_HFCa453wtPNX-85">
          <mxGeometry relative="1" as="geometry">
            <mxPoint x="680.1212121212122" y="1720" as="targetPoint" />
          </mxGeometry>
        </mxCell>
        <mxCell id="0MIJxyE_HFCa453wtPNX-82" value="isBlockedUser = getUserBlockStatus()" style="rounded=0;whiteSpace=wrap;html=1;" vertex="1" parent="1">
          <mxGeometry x="520" y="1658" width="320" height="40" as="geometry" />
        </mxCell>
        <mxCell id="0MIJxyE_HFCa453wtPNX-86" style="edgeStyle=orthogonalEdgeStyle;rounded=0;orthogonalLoop=1;jettySize=auto;html=1;exitX=0;exitY=0.5;exitDx=0;exitDy=0;entryX=0.5;entryY=0;entryDx=0;entryDy=0;" edge="1" parent="1" source="0MIJxyE_HFCa453wtPNX-85" target="0MIJxyE_HFCa453wtPNX-90">
          <mxGeometry relative="1" as="geometry">
            <mxPoint x="480" y="1780" as="targetPoint" />
          </mxGeometry>
        </mxCell>
        <mxCell id="0MIJxyE_HFCa453wtPNX-89" value="Yes" style="edgeLabel;html=1;align=center;verticalAlign=middle;resizable=0;points=[];" vertex="1" connectable="0" parent="0MIJxyE_HFCa453wtPNX-86">
          <mxGeometry x="0.4608" y="-2" relative="1" as="geometry">
            <mxPoint as="offset" />
          </mxGeometry>
        </mxCell>
        <mxCell id="0MIJxyE_HFCa453wtPNX-96" style="edgeStyle=orthogonalEdgeStyle;rounded=0;orthogonalLoop=1;jettySize=auto;html=1;exitX=1;exitY=0.5;exitDx=0;exitDy=0;entryX=0.5;entryY=0;entryDx=0;entryDy=0;" edge="1" parent="1" source="0MIJxyE_HFCa453wtPNX-85" target="0MIJxyE_HFCa453wtPNX-97">
          <mxGeometry relative="1" as="geometry">
            <mxPoint x="880" y="1780" as="targetPoint" />
          </mxGeometry>
        </mxCell>
        <mxCell id="0MIJxyE_HFCa453wtPNX-85" value="check isBlockedUser" style="rhombus;whiteSpace=wrap;html=1;fillColor=#FFF2CC;" vertex="1" parent="1">
          <mxGeometry x="530" y="1724" width="300" height="36" as="geometry" />
        </mxCell>
        <mxCell id="0MIJxyE_HFCa453wtPNX-92" style="edgeStyle=orthogonalEdgeStyle;rounded=0;orthogonalLoop=1;jettySize=auto;html=1;exitX=0.5;exitY=1;exitDx=0;exitDy=0;entryX=0.5;entryY=0;entryDx=0;entryDy=0;" edge="1" parent="1" source="0MIJxyE_HFCa453wtPNX-90" target="0MIJxyE_HFCa453wtPNX-91">
          <mxGeometry relative="1" as="geometry" />
        </mxCell>
        <mxCell id="0MIJxyE_HFCa453wtPNX-90" value="User Account is Blocked. Try Again after some time" style="rounded=0;whiteSpace=wrap;html=1;" vertex="1" parent="1">
          <mxGeometry x="400" y="1780" width="160" height="40" as="geometry" />
        </mxCell>
        <mxCell id="0MIJxyE_HFCa453wtPNX-91" value="DomainExceptionCode = APZ_DM_052" style="rounded=0;whiteSpace=wrap;html=1;" vertex="1" parent="1">
          <mxGeometry x="400" y="1840" width="160" height="40" as="geometry" />
        </mxCell>
        <mxCell id="0MIJxyE_HFCa453wtPNX-98" style="edgeStyle=orthogonalEdgeStyle;rounded=0;orthogonalLoop=1;jettySize=auto;html=1;exitX=0;exitY=0.5;exitDx=0;exitDy=0;entryX=0.5;entryY=0;entryDx=0;entryDy=0;" edge="1" parent="1" source="0MIJxyE_HFCa453wtPNX-97" target="0MIJxyE_HFCa453wtPNX-103">
          <mxGeometry relative="1" as="geometry">
            <mxPoint x="680" y="1850" as="targetPoint" />
          </mxGeometry>
        </mxCell>
        <mxCell id="0MIJxyE_HFCa453wtPNX-100" value="Yes" style="edgeLabel;html=1;align=center;verticalAlign=middle;resizable=0;points=[];" vertex="1" connectable="0" parent="0MIJxyE_HFCa453wtPNX-98">
          <mxGeometry x="0.4573" y="2" relative="1" as="geometry">
            <mxPoint as="offset" />
          </mxGeometry>
        </mxCell>
        <mxCell id="0MIJxyE_HFCa453wtPNX-99" style="edgeStyle=orthogonalEdgeStyle;rounded=0;orthogonalLoop=1;jettySize=auto;html=1;exitX=1;exitY=0.5;exitDx=0;exitDy=0;entryX=0.5;entryY=0;entryDx=0;entryDy=0;" edge="1" parent="1" source="0MIJxyE_HFCa453wtPNX-97" target="0MIJxyE_HFCa453wtPNX-102">
          <mxGeometry relative="1" as="geometry">
            <mxPoint x="1080" y="1840" as="targetPoint" />
          </mxGeometry>
        </mxCell>
        <mxCell id="0MIJxyE_HFCa453wtPNX-101" value="No" style="edgeLabel;html=1;align=center;verticalAlign=middle;resizable=0;points=[];" vertex="1" connectable="0" parent="0MIJxyE_HFCa453wtPNX-99">
          <mxGeometry x="0.4516" relative="1" as="geometry">
            <mxPoint as="offset" />
          </mxGeometry>
        </mxCell>
        <mxCell id="0MIJxyE_HFCa453wtPNX-97" value="Check header.deviceId == &quot;WEB&quot;" style="rhombus;whiteSpace=wrap;html=1;fillColor=#FFF2CC;" vertex="1" parent="1">
          <mxGeometry x="730" y="1780" width="300" height="40" as="geometry" />
        </mxCell>
        <mxCell id="0MIJxyE_HFCa453wtPNX-105" style="edgeStyle=orthogonalEdgeStyle;rounded=0;orthogonalLoop=1;jettySize=auto;html=1;exitX=0.5;exitY=1;exitDx=0;exitDy=0;entryX=0.5;entryY=0;entryDx=0;entryDy=0;" edge="1" parent="1" source="0MIJxyE_HFCa453wtPNX-102" target="0MIJxyE_HFCa453wtPNX-104">
          <mxGeometry relative="1" as="geometry" />
        </mxCell>
        <mxCell id="0MIJxyE_HFCa453wtPNX-102" value="isFirstTimeLogin = authentication.getUserOTPStatus()" style="rounded=0;whiteSpace=wrap;html=1;" vertex="1" parent="1">
          <mxGeometry x="920" y="1840" width="320" height="40" as="geometry" />
        </mxCell>
        <mxCell id="0MIJxyE_HFCa453wtPNX-114" style="edgeStyle=orthogonalEdgeStyle;rounded=0;orthogonalLoop=1;jettySize=auto;html=1;exitX=0.5;exitY=1;exitDx=0;exitDy=0;entryX=0.5;entryY=0;entryDx=0;entryDy=0;" edge="1" parent="1" source="0MIJxyE_HFCa453wtPNX-103" target="0MIJxyE_HFCa453wtPNX-115">
          <mxGeometry relative="1" as="geometry">
            <mxPoint x="680.2857142857144" y="1970" as="targetPoint" />
          </mxGeometry>
        </mxCell>
        <mxCell id="0MIJxyE_HFCa453wtPNX-103" value="isFirstTime = false" style="rounded=0;whiteSpace=wrap;html=1;" vertex="1" parent="1">
          <mxGeometry x="615" y="1840" width="130" height="40" as="geometry" />
        </mxCell>
        <mxCell id="0MIJxyE_HFCa453wtPNX-106" style="edgeStyle=orthogonalEdgeStyle;rounded=0;orthogonalLoop=1;jettySize=auto;html=1;exitX=0;exitY=0.5;exitDx=0;exitDy=0;entryX=0.5;entryY=0;entryDx=0;entryDy=0;" edge="1" parent="1" source="0MIJxyE_HFCa453wtPNX-104" target="0MIJxyE_HFCa453wtPNX-115">
          <mxGeometry relative="1" as="geometry">
            <mxPoint x="840" y="1960" as="targetPoint" />
            <Array as="points">
              <mxPoint x="930" y="1920" />
              <mxPoint x="880" y="1920" />
            </Array>
          </mxGeometry>
        </mxCell>
        <mxCell id="0MIJxyE_HFCa453wtPNX-116" value="No" style="edgeLabel;html=1;align=center;verticalAlign=middle;resizable=0;points=[];" vertex="1" connectable="0" parent="0MIJxyE_HFCa453wtPNX-106">
          <mxGeometry x="-0.3556" y="-1" relative="1" as="geometry">
            <mxPoint as="offset" />
          </mxGeometry>
        </mxCell>
        <mxCell id="0MIJxyE_HFCa453wtPNX-107" style="edgeStyle=orthogonalEdgeStyle;rounded=0;orthogonalLoop=1;jettySize=auto;html=1;exitX=1;exitY=0.5;exitDx=0;exitDy=0;entryX=0.5;entryY=0;entryDx=0;entryDy=0;" edge="1" parent="1" source="0MIJxyE_HFCa453wtPNX-104" target="0MIJxyE_HFCa453wtPNX-109">
          <mxGeometry relative="1" as="geometry">
            <mxPoint x="1280" y="1960" as="targetPoint" />
          </mxGeometry>
        </mxCell>
        <mxCell id="0MIJxyE_HFCa453wtPNX-108" value="yes" style="edgeLabel;html=1;align=center;verticalAlign=middle;resizable=0;points=[];" vertex="1" connectable="0" parent="0MIJxyE_HFCa453wtPNX-107">
          <mxGeometry x="0.4275" y="-5" relative="1" as="geometry">
            <mxPoint as="offset" />
          </mxGeometry>
        </mxCell>
        <mxCell id="0MIJxyE_HFCa453wtPNX-104" value="If FirstTimeLogin == true &amp;amp;&amp;amp;&amp;nbsp;&lt;div&gt;header.deviceId != &quot;WEB&quot;&lt;/div&gt;" style="rhombus;whiteSpace=wrap;html=1;fillColor=#FFF2CC;" vertex="1" parent="1">
          <mxGeometry x="930" y="1900" width="300" height="40" as="geometry" />
        </mxCell>
        <mxCell id="0MIJxyE_HFCa453wtPNX-110" style="edgeStyle=orthogonalEdgeStyle;rounded=0;orthogonalLoop=1;jettySize=auto;html=1;exitX=0.5;exitY=1;exitDx=0;exitDy=0;entryX=0.496;entryY=-0.068;entryDx=0;entryDy=0;entryPerimeter=0;" edge="1" parent="1" source="0MIJxyE_HFCa453wtPNX-109" target="0MIJxyE_HFCa453wtPNX-111">
          <mxGeometry relative="1" as="geometry">
            <mxPoint x="1280" y="2020" as="targetPoint" />
          </mxGeometry>
        </mxCell>
        <mxCell id="0MIJxyE_HFCa453wtPNX-109" value="call firstTimeLogin()" style="rounded=0;whiteSpace=wrap;html=1;" vertex="1" parent="1">
          <mxGeometry x="1210" y="1960" width="140" height="40" as="geometry" />
        </mxCell>
        <mxCell id="0MIJxyE_HFCa453wtPNX-112" style="edgeStyle=orthogonalEdgeStyle;rounded=0;orthogonalLoop=1;jettySize=auto;html=1;exitX=0.5;exitY=1;exitDx=0;exitDy=0;" edge="1" parent="1" source="0MIJxyE_HFCa453wtPNX-111">
          <mxGeometry relative="1" as="geometry">
            <mxPoint x="1279.9787234042553" y="2080" as="targetPoint" />
          </mxGeometry>
        </mxCell>
        <mxCell id="0MIJxyE_HFCa453wtPNX-111" value="call authenticationService.generateOTP()" style="rounded=0;whiteSpace=wrap;html=1;" vertex="1" parent="1">
          <mxGeometry x="1160" y="2020" width="240" height="40" as="geometry" />
        </mxCell>
        <mxCell id="0MIJxyE_HFCa453wtPNX-121" style="edgeStyle=orthogonalEdgeStyle;rounded=0;orthogonalLoop=1;jettySize=auto;html=1;exitX=0.5;exitY=1;exitDx=0;exitDy=0;entryX=0.5;entryY=0;entryDx=0;entryDy=0;" edge="1" parent="1" source="0MIJxyE_HFCa453wtPNX-113" target="0MIJxyE_HFCa453wtPNX-120">
          <mxGeometry relative="1" as="geometry" />
        </mxCell>
        <mxCell id="0MIJxyE_HFCa453wtPNX-113" value="call SendSMS.sendSMS()&amp;nbsp;" style="rounded=0;whiteSpace=wrap;html=1;" vertex="1" parent="1">
          <mxGeometry x="1160" y="2080" width="240" height="40" as="geometry" />
        </mxCell>
        <mxCell id="0MIJxyE_HFCa453wtPNX-117" style="edgeStyle=orthogonalEdgeStyle;rounded=0;orthogonalLoop=1;jettySize=auto;html=1;exitX=0.5;exitY=1;exitDx=0;exitDy=0;entryX=0.5;entryY=0;entryDx=0;entryDy=0;" edge="1" parent="1" source="0MIJxyE_HFCa453wtPNX-115" target="0MIJxyE_HFCa453wtPNX-118">
          <mxGeometry relative="1" as="geometry">
            <mxPoint x="881" y="2020" as="targetPoint" />
          </mxGeometry>
        </mxCell>
        <mxCell id="0MIJxyE_HFCa453wtPNX-115" value="Call Login Workflow&lt;div&gt;workflowId = &quot;FetchCustomLoginData&quot;&lt;/div&gt;&lt;div&gt;interfaceId = &quot;CustomLogin&quot;&lt;/div&gt;" style="rounded=0;whiteSpace=wrap;html=1;" vertex="1" parent="1">
          <mxGeometry x="761" y="1960" width="240" height="40" as="geometry" />
        </mxCell>
        <mxCell id="0MIJxyE_HFCa453wtPNX-119" style="edgeStyle=orthogonalEdgeStyle;rounded=0;orthogonalLoop=1;jettySize=auto;html=1;exitX=0.5;exitY=1;exitDx=0;exitDy=0;entryX=0.5;entryY=0;entryDx=0;entryDy=0;" edge="1" parent="1" source="0MIJxyE_HFCa453wtPNX-118" target="0MIJxyE_HFCa453wtPNX-120">
          <mxGeometry relative="1" as="geometry">
            <mxPoint x="880" y="2150" as="targetPoint" />
          </mxGeometry>
        </mxCell>
        <mxCell id="0MIJxyE_HFCa453wtPNX-118" value="FrameworkStartup.getInstance().&lt;div&gt;processRequest()&lt;/div&gt;" style="rounded=0;whiteSpace=wrap;html=1;" vertex="1" parent="1">
          <mxGeometry x="760" y="2020" width="240" height="40" as="geometry" />
        </mxCell>
        <mxCell id="0MIJxyE_HFCa453wtPNX-122" style="edgeStyle=orthogonalEdgeStyle;rounded=0;orthogonalLoop=1;jettySize=auto;html=1;exitX=0.5;exitY=1;exitDx=0;exitDy=0;entryX=0.5;entryY=0;entryDx=0;entryDy=0;" edge="1" parent="1" source="0MIJxyE_HFCa453wtPNX-120" target="0MIJxyE_HFCa453wtPNX-123">
          <mxGeometry relative="1" as="geometry">
            <mxPoint x="880.3333333333333" y="2230" as="targetPoint" />
            <Array as="points" />
          </mxGeometry>
        </mxCell>
        <mxCell id="0MIJxyE_HFCa453wtPNX-120" value="set header.serviceType = &quot;clearServerNonces&quot;" style="rounded=0;whiteSpace=wrap;html=1;" vertex="1" parent="1">
          <mxGeometry x="760" y="2160" width="240" height="40" as="geometry" />
        </mxCell>
        <mxCell id="0MIJxyE_HFCa453wtPNX-130" style="edgeStyle=orthogonalEdgeStyle;rounded=0;orthogonalLoop=1;jettySize=auto;html=1;exitX=0.5;exitY=1;exitDx=0;exitDy=0;entryX=0.5;entryY=0;entryDx=0;entryDy=0;" edge="1" parent="1" source="0MIJxyE_HFCa453wtPNX-123" target="0MIJxyE_HFCa453wtPNX-129">
          <mxGeometry relative="1" as="geometry" />
        </mxCell>
        <mxCell id="0MIJxyE_HFCa453wtPNX-123" value="Call IHanlder.handleRequest()" style="rounded=0;whiteSpace=wrap;html=1;" vertex="1" parent="1">
          <mxGeometry x="760" y="2220" width="240" height="40" as="geometry" />
        </mxCell>
        <mxCell id="0MIJxyE_HFCa453wtPNX-132" style="edgeStyle=orthogonalEdgeStyle;rounded=0;orthogonalLoop=1;jettySize=auto;html=1;exitX=0;exitY=0.5;exitDx=0;exitDy=0;" edge="1" parent="1" source="0MIJxyE_HFCa453wtPNX-129">
          <mxGeometry relative="1" as="geometry">
            <mxPoint x="560" y="2760" as="targetPoint" />
            <Array as="points">
              <mxPoint x="320" y="2340" />
              <mxPoint x="320" y="2690" />
              <mxPoint x="560" y="2690" />
            </Array>
          </mxGeometry>
        </mxCell>
        <mxCell id="0MIJxyE_HFCa453wtPNX-133" style="edgeStyle=orthogonalEdgeStyle;rounded=0;orthogonalLoop=1;jettySize=auto;html=1;exitX=1;exitY=0.5;exitDx=0;exitDy=0;entryX=0.5;entryY=0;entryDx=0;entryDy=0;entryPerimeter=0;" edge="1" parent="1" source="0MIJxyE_HFCa453wtPNX-129" target="0MIJxyE_HFCa453wtPNX-135">
          <mxGeometry relative="1" as="geometry">
            <mxPoint x="680" y="2409.9999999999995" as="targetPoint" />
          </mxGeometry>
        </mxCell>
        <mxCell id="0MIJxyE_HFCa453wtPNX-136" value="Yes" style="edgeLabel;html=1;align=center;verticalAlign=middle;resizable=0;points=[];" vertex="1" connectable="0" parent="0MIJxyE_HFCa453wtPNX-133">
          <mxGeometry x="0.1976" y="-3" relative="1" as="geometry">
            <mxPoint as="offset" />
          </mxGeometry>
        </mxCell>
        <mxCell id="0MIJxyE_HFCa453wtPNX-129" value="&lt;div&gt;&lt;br&gt;&lt;/div&gt;&lt;div&gt;Check if&amp;nbsp; appId != null &amp;amp;&amp;amp;&lt;/div&gt;&lt;div&gt;deviceId != null &amp;amp;&amp;amp;&lt;/div&gt;&lt;div&gt;deviceId != device&lt;/div&gt;" style="rhombus;whiteSpace=wrap;html=1;" vertex="1" parent="1">
          <mxGeometry x="400" y="2300" width="240" height="80" as="geometry" />
        </mxCell>
        <mxCell id="0MIJxyE_HFCa453wtPNX-137" style="edgeStyle=orthogonalEdgeStyle;rounded=0;orthogonalLoop=1;jettySize=auto;html=1;exitX=0;exitY=0.5;exitDx=0;exitDy=0;entryX=0.5;entryY=0;entryDx=0;entryDy=0;" edge="1" parent="1" source="0MIJxyE_HFCa453wtPNX-135" target="0MIJxyE_HFCa453wtPNX-141">
          <mxGeometry relative="1" as="geometry">
            <mxPoint x="480" y="2520" as="targetPoint" />
          </mxGeometry>
        </mxCell>
        <mxCell id="0MIJxyE_HFCa453wtPNX-139" value="Yes" style="edgeLabel;html=1;align=center;verticalAlign=middle;resizable=0;points=[];" vertex="1" connectable="0" parent="0MIJxyE_HFCa453wtPNX-137">
          <mxGeometry x="0.1919" y="2" relative="1" as="geometry">
            <mxPoint as="offset" />
          </mxGeometry>
        </mxCell>
        <mxCell id="0MIJxyE_HFCa453wtPNX-138" style="edgeStyle=orthogonalEdgeStyle;rounded=0;orthogonalLoop=1;jettySize=auto;html=1;exitX=1;exitY=0.5;exitDx=0;exitDy=0;" edge="1" parent="1">
          <mxGeometry relative="1" as="geometry">
            <mxPoint x="560" y="2760" as="targetPoint" />
            <mxPoint x="829.5" y="2440" as="sourcePoint" />
            <Array as="points">
              <mxPoint x="880.5" y="2440" />
              <mxPoint x="880.5" y="2690" />
              <mxPoint x="559.5" y="2690" />
            </Array>
          </mxGeometry>
        </mxCell>
        <mxCell id="0MIJxyE_HFCa453wtPNX-140" value="No" style="edgeLabel;html=1;align=center;verticalAlign=middle;resizable=0;points=[];" vertex="1" connectable="0" parent="0MIJxyE_HFCa453wtPNX-138">
          <mxGeometry x="0.1844" y="2" relative="1" as="geometry">
            <mxPoint as="offset" />
          </mxGeometry>
        </mxCell>
        <mxCell id="0MIJxyE_HFCa453wtPNX-135" value="Check if appMasterVersion = 1.0.0" style="rhombus;whiteSpace=wrap;html=1;" vertex="1" parent="1">
          <mxGeometry x="530" y="2400" width="300" height="80" as="geometry" />
        </mxCell>
        <mxCell id="0MIJxyE_HFCa453wtPNX-142" style="edgeStyle=orthogonalEdgeStyle;rounded=0;orthogonalLoop=1;jettySize=auto;html=1;exitX=0.5;exitY=1;exitDx=0;exitDy=0;entryX=0.5;entryY=0;entryDx=0;entryDy=0;" edge="1" parent="1" source="0MIJxyE_HFCa453wtPNX-141" target="0MIJxyE_HFCa453wtPNX-143">
          <mxGeometry relative="1" as="geometry">
            <mxPoint x="480.13043478260875" y="2560" as="targetPoint" />
          </mxGeometry>
        </mxCell>
        <mxCell id="0MIJxyE_HFCa453wtPNX-141" value="Set Error Code == &quot;APP_UPDATE_1.0.0&quot;" style="rounded=0;whiteSpace=wrap;html=1;" vertex="1" parent="1">
          <mxGeometry x="360" y="2500" width="240" height="40" as="geometry" />
        </mxCell>
        <mxCell id="0MIJxyE_HFCa453wtPNX-146" style="edgeStyle=orthogonalEdgeStyle;rounded=0;orthogonalLoop=1;jettySize=auto;html=1;exitX=0.5;exitY=1;exitDx=0;exitDy=0;entryX=0.5;entryY=0;entryDx=0;entryDy=0;" edge="1" parent="1" source="0MIJxyE_HFCa453wtPNX-143" target="0MIJxyE_HFCa453wtPNX-147">
          <mxGeometry relative="1" as="geometry">
            <mxPoint x="560" y="2760" as="targetPoint" />
            <Array as="points">
              <mxPoint x="480" y="2690" />
              <mxPoint x="561" y="2690" />
              <mxPoint x="561" y="3080" />
              <mxPoint x="240" y="3080" />
            </Array>
          </mxGeometry>
        </mxCell>
        <mxCell id="0MIJxyE_HFCa453wtPNX-143" value="clear LoginResponse" style="rounded=0;whiteSpace=wrap;html=1;" vertex="1" parent="1">
          <mxGeometry x="360" y="2560" width="240" height="40" as="geometry" />
        </mxCell>
        <mxCell id="0MIJxyE_HFCa453wtPNX-147" value="End" style="ellipse;whiteSpace=wrap;html=1;aspect=fixed;" vertex="1" parent="1">
          <mxGeometry x="220" y="3120" width="40" height="40" as="geometry" />
        </mxCell>
        <mxCell id="0MIJxyE_HFCa453wtPNX-149" style="edgeStyle=orthogonalEdgeStyle;rounded=0;orthogonalLoop=1;jettySize=auto;html=1;exitX=0.5;exitY=1;exitDx=0;exitDy=0;entryX=0.5;entryY=0;entryDx=0;entryDy=0;" edge="1" parent="1" target="0MIJxyE_HFCa453wtPNX-150">
          <mxGeometry relative="1" as="geometry">
            <mxPoint x="239.33" y="2870.02" as="targetPoint" />
            <mxPoint x="239.33" y="2750" as="sourcePoint" />
          </mxGeometry>
        </mxCell>
        <mxCell id="0MIJxyE_HFCa453wtPNX-148" value="set serviceType = &quot;appzillonCheckAndUpdateCookie&quot;" style="rounded=0;whiteSpace=wrap;html=1;" vertex="1" parent="1">
          <mxGeometry x="140" y="2720" width="200" height="60" as="geometry" />
        </mxCell>
        <mxCell id="0MIJxyE_HFCa453wtPNX-154" style="edgeStyle=orthogonalEdgeStyle;rounded=0;orthogonalLoop=1;jettySize=auto;html=1;exitX=0.5;exitY=1;exitDx=0;exitDy=0;entryX=0.5;entryY=0;entryDx=0;entryDy=0;" edge="1" parent="1" source="0MIJxyE_HFCa453wtPNX-150" target="0MIJxyE_HFCa453wtPNX-155">
          <mxGeometry relative="1" as="geometry">
            <mxPoint x="240.33333333333348" y="2880" as="targetPoint" />
          </mxGeometry>
        </mxCell>
        <mxCell id="0MIJxyE_HFCa453wtPNX-150" value="&lt;div&gt;DomainStartup.getInstance().processRequest&lt;/div&gt;&lt;div&gt;with SERVICE_CHECK_AND_UPDATE_COOKIE&lt;/div&gt;" style="rounded=0;whiteSpace=wrap;html=1;" vertex="1" parent="1">
          <mxGeometry x="105" y="2800" width="270" height="60" as="geometry" />
        </mxCell>
        <mxCell id="0MIJxyE_HFCa453wtPNX-153" style="edgeStyle=orthogonalEdgeStyle;rounded=0;orthogonalLoop=1;jettySize=auto;html=1;exitX=0.5;exitY=1;exitDx=0;exitDy=0;entryX=0.5;entryY=0;entryDx=0;entryDy=0;" edge="1" parent="1" source="0MIJxyE_HFCa453wtPNX-151" target="0MIJxyE_HFCa453wtPNX-152">
          <mxGeometry relative="1" as="geometry" />
        </mxCell>
        <mxCell id="0MIJxyE_HFCa453wtPNX-151" value="set serviceType = &quot;ServiceCheckDeviceMobile&quot;" style="rounded=0;whiteSpace=wrap;html=1;" vertex="1" parent="1">
          <mxGeometry x="-230" y="2720" width="200" height="60" as="geometry" />
        </mxCell>
        <mxCell id="0MIJxyE_HFCa453wtPNX-152" value="&lt;div&gt;DomainStartup.getInstance().processRequest&lt;/div&gt;&lt;div&gt;with&amp;nbsp;SERVICE_CHECK_DEVICE_MOBILE&lt;/div&gt;" style="rounded=0;whiteSpace=wrap;html=1;" vertex="1" parent="1">
          <mxGeometry x="-265" y="2810" width="270" height="60" as="geometry" />
        </mxCell>
        <mxCell id="0MIJxyE_HFCa453wtPNX-156" style="edgeStyle=orthogonalEdgeStyle;rounded=0;orthogonalLoop=1;jettySize=auto;html=1;exitX=0.5;exitY=1;exitDx=0;exitDy=0;entryX=0.5;entryY=0;entryDx=0;entryDy=0;" edge="1" parent="1" source="0MIJxyE_HFCa453wtPNX-155" target="0MIJxyE_HFCa453wtPNX-157">
          <mxGeometry relative="1" as="geometry">
            <mxPoint x="240.33333333333348" y="2940" as="targetPoint" />
          </mxGeometry>
        </mxCell>
        <mxCell id="0MIJxyE_HFCa453wtPNX-155" value="call this.validateUser()" style="rounded=0;whiteSpace=wrap;html=1;" vertex="1" parent="1">
          <mxGeometry x="105" y="2880" width="270" height="40" as="geometry" />
        </mxCell>
        <mxCell id="0MIJxyE_HFCa453wtPNX-169" style="edgeStyle=orthogonalEdgeStyle;rounded=0;orthogonalLoop=1;jettySize=auto;html=1;exitX=0.5;exitY=1;exitDx=0;exitDy=0;entryX=0.5;entryY=0;entryDx=0;entryDy=0;" edge="1" parent="1" source="0MIJxyE_HFCa453wtPNX-157" target="0MIJxyE_HFCa453wtPNX-147">
          <mxGeometry relative="1" as="geometry" />
        </mxCell>
        <mxCell id="0MIJxyE_HFCa453wtPNX-157" value="call this.authenticateSuccess()" style="rounded=0;whiteSpace=wrap;html=1;" vertex="1" parent="1">
          <mxGeometry x="105" y="2940" width="270" height="40" as="geometry" />
        </mxCell>
        <mxCell id="0MIJxyE_HFCa453wtPNX-162" style="edgeStyle=orthogonalEdgeStyle;rounded=0;orthogonalLoop=1;jettySize=auto;html=1;exitX=0;exitY=0.5;exitDx=0;exitDy=0;entryX=0.5;entryY=0;entryDx=0;entryDy=0;" edge="1" parent="1" source="0MIJxyE_HFCa453wtPNX-159" target="0MIJxyE_HFCa453wtPNX-165">
          <mxGeometry relative="1" as="geometry">
            <mxPoint x="-320" y="2959.9999999999995" as="targetPoint" />
          </mxGeometry>
        </mxCell>
        <mxCell id="0MIJxyE_HFCa453wtPNX-164" value="Yes" style="edgeLabel;html=1;align=center;verticalAlign=middle;resizable=0;points=[];" vertex="1" connectable="0" parent="0MIJxyE_HFCa453wtPNX-162">
          <mxGeometry x="0.5367" y="4" relative="1" as="geometry">
            <mxPoint as="offset" />
          </mxGeometry>
        </mxCell>
        <mxCell id="0MIJxyE_HFCa453wtPNX-163" style="edgeStyle=orthogonalEdgeStyle;rounded=0;orthogonalLoop=1;jettySize=auto;html=1;exitX=1;exitY=0.5;exitDx=0;exitDy=0;entryX=0.5;entryY=0;entryDx=0;entryDy=0;" edge="1" parent="1" source="0MIJxyE_HFCa453wtPNX-159" target="0MIJxyE_HFCa453wtPNX-147">
          <mxGeometry relative="1" as="geometry">
            <mxPoint x="40" y="2959.9999999999995" as="targetPoint" />
            <Array as="points">
              <mxPoint x="40" y="2920" />
              <mxPoint x="40" y="3080" />
              <mxPoint x="240" y="3080" />
            </Array>
          </mxGeometry>
        </mxCell>
        <mxCell id="0MIJxyE_HFCa453wtPNX-159" value="If response.status != &quot;Success" style="rhombus;whiteSpace=wrap;html=1;" vertex="1" parent="1">
          <mxGeometry x="-260" y="2900" width="260" height="40" as="geometry" />
        </mxCell>
        <mxCell id="0MIJxyE_HFCa453wtPNX-160" style="edgeStyle=orthogonalEdgeStyle;rounded=0;orthogonalLoop=1;jettySize=auto;html=1;exitX=0.5;exitY=1;exitDx=0;exitDy=0;entryX=0.499;entryY=-0.027;entryDx=0;entryDy=0;entryPerimeter=0;" edge="1" parent="1" source="0MIJxyE_HFCa453wtPNX-152" target="0MIJxyE_HFCa453wtPNX-159">
          <mxGeometry relative="1" as="geometry" />
        </mxCell>
        <mxCell id="0MIJxyE_HFCa453wtPNX-167" style="edgeStyle=orthogonalEdgeStyle;rounded=0;orthogonalLoop=1;jettySize=auto;html=1;exitX=0.5;exitY=1;exitDx=0;exitDy=0;entryX=0.5;entryY=0;entryDx=0;entryDy=0;" edge="1" parent="1" source="0MIJxyE_HFCa453wtPNX-165" target="0MIJxyE_HFCa453wtPNX-166">
          <mxGeometry relative="1" as="geometry" />
        </mxCell>
        <mxCell id="0MIJxyE_HFCa453wtPNX-165" value="Error Message = &quot;Admin Authorization Requried!!!&quot;" style="rounded=0;whiteSpace=wrap;html=1;" vertex="1" parent="1">
          <mxGeometry x="-420" y="2960" width="200" height="40" as="geometry" />
        </mxCell>
        <mxCell id="0MIJxyE_HFCa453wtPNX-168" style="edgeStyle=orthogonalEdgeStyle;rounded=0;orthogonalLoop=1;jettySize=auto;html=1;exitX=0.5;exitY=1;exitDx=0;exitDy=0;entryX=0.5;entryY=0;entryDx=0;entryDy=0;" edge="1" parent="1" source="0MIJxyE_HFCa453wtPNX-166" target="0MIJxyE_HFCa453wtPNX-147">
          <mxGeometry relative="1" as="geometry">
            <Array as="points">
              <mxPoint x="-320" y="3080" />
              <mxPoint x="240" y="3080" />
            </Array>
          </mxGeometry>
        </mxCell>
        <mxCell id="0MIJxyE_HFCa453wtPNX-166" value="Code APZ_SMS_EX_009" style="rounded=0;whiteSpace=wrap;html=1;" vertex="1" parent="1">
          <mxGeometry x="-420" y="3020" width="200" height="40" as="geometry" />
        </mxCell>
      </root>
    </mxGraphModel>
  </diagram>
</mxfile>
